<svg xmlns="http://www.w3.org/2000/svg" xmlns:xlink="http://www.w3.org/1999/xlink" width="500" zoomAndPan="magnify" viewBox="0 0 375 374.999991" height="500" preserveAspectRatio="xMidYMid meet" version="1.0"><defs><clipPath id="ea2a0e1a33"><path d="M 88.28125 62.300781 L 286 62.300781 L 286 312.800781 L 88.28125 312.800781 Z M 88.28125 62.300781 " clip-rule="nonzero"/></clipPath></defs><rect x="-37.5" width="450" fill="#ffffff" y="-37.499999" height="449.999989" fill-opacity="1"/><rect x="-37.5" width="450" fill="#ffffff" y="-37.499999" height="449.999989" fill-opacity="1"/><rect x="-37.5" width="450" fill="#27470b" y="-37.499999" height="449.999989" fill-opacity="1"/><g clip-path="url(#ea2a0e1a33)"><path fill="#ffffff" d="M 279.335938 292.734375 C 279.335938 295.289062 277.257812 297.363281 274.699219 297.363281 L 267.101562 297.363281 C 260.679688 297.363281 255.457031 292.144531 255.457031 285.730469 L 255.457031 274.207031 C 255.457031 267.789062 260.679688 262.574219 267.101562 262.574219 L 274.699219 262.574219 C 277.257812 262.574219 279.335938 264.648438 279.335938 267.203125 Z M 267.160156 306.789062 L 106.699219 306.789062 L 106.699219 303.285156 L 106.757812 303.285156 C 115.625 303.285156 122.972656 296.691406 124.15625 288.152344 L 249.703125 288.152344 C 250.886719 296.691406 258.234375 303.285156 267.101562 303.285156 L 267.160156 303.285156 Z M 94.523438 292.734375 L 94.523438 267.203125 C 94.523438 264.648438 96.601562 262.574219 99.160156 262.574219 L 106.757812 262.574219 C 113.179688 262.574219 118.402344 267.789062 118.402344 274.207031 L 118.402344 285.730469 C 118.402344 292.144531 113.179688 297.363281 106.757812 297.363281 L 99.160156 297.363281 C 96.601562 297.363281 94.523438 295.289062 94.523438 292.734375 Z M 95.921875 226.625 C 101.808594 226.457031 117.878906 227.125 128.535156 239.539062 C 129.164062 245.210938 130.382812 251.316406 132.460938 257.679688 L 112.671875 257.679688 C 110.824219 257.015625 108.832031 256.65625 106.757812 256.65625 L 101.960938 256.65625 C 99.445312 252.609375 94.585938 242.546875 95.921875 226.625 Z M 116.121094 219.425781 C 116.121094 199.21875 132.574219 182.785156 152.800781 182.785156 L 221.058594 182.785156 C 226.269531 182.785156 231.234375 183.882812 235.738281 185.851562 C 203.847656 197.15625 188.359375 217.195312 180.84375 233.683594 C 179.71875 231.191406 178.1875 228.261719 176.140625 225.191406 C 175.976562 224.734375 175.699219 224.316406 175.308594 223.980469 C 171.777344 218.957031 166.871094 213.671875 160.148438 209.390625 C 159.9375 209.191406 159.691406 209.023438 159.417969 208.890625 C 159.351562 208.859375 159.289062 208.835938 159.222656 208.8125 C 152.953125 205 145.164062 202.070312 135.53125 200.984375 C 135.296875 200.941406 135.058594 200.921875 134.820312 200.933594 C 134.808594 200.933594 134.792969 200.9375 134.78125 200.9375 C 134.65625 200.945312 134.535156 200.964844 134.414062 200.984375 C 134.375 200.992188 134.335938 201 134.296875 201.007812 C 134.179688 201.035156 134.066406 201.074219 133.953125 201.117188 C 133.898438 201.136719 133.84375 201.160156 133.792969 201.183594 C 133.769531 201.195312 133.746094 201.199219 133.722656 201.210938 C 133.628906 201.253906 133.539062 201.304688 133.453125 201.355469 C 133.449219 201.359375 133.445312 201.363281 133.4375 201.367188 C 132.863281 201.714844 132.441406 202.234375 132.210938 202.828125 C 132.210938 202.828125 132.210938 202.832031 132.210938 202.832031 C 132.207031 202.835938 132.207031 202.839844 132.207031 202.84375 C 132.195312 202.867188 132.191406 202.882812 132.179688 202.902344 C 131.730469 204.085938 127.78125 214.972656 127.988281 230.722656 C 124.179688 227.59375 120.101562 225.410156 116.121094 223.898438 Z M 152.636719 142.605469 L 152.636719 129.773438 L 221.230469 129.773438 L 221.230469 142.605469 C 221.230469 161.496094 205.84375 176.867188 186.929688 176.867188 C 168.023438 176.867188 152.636719 161.496094 152.636719 142.605469 Z M 129.476562 123.855469 L 150.707031 107.019531 L 223.160156 107.019531 L 244.382812 123.855469 Z M 152.636719 95.808594 C 152.636719 80.613281 165.011719 68.253906 180.214844 68.253906 L 193.644531 68.253906 C 208.855469 68.253906 221.230469 80.613281 221.230469 95.808594 L 221.230469 101.101562 L 152.636719 101.101562 Z M 231.175781 257.679688 L 209.671875 257.679688 L 214.433594 247.554688 L 231.644531 243.394531 C 233.238281 243.011719 234.21875 241.40625 233.828125 239.824219 C 233.449219 238.234375 231.839844 237.265625 230.25 237.636719 L 217.664062 240.679688 L 226.609375 221.648438 C 227.316406 220.171875 226.675781 218.410156 225.1875 217.714844 C 223.710938 216.996094 221.941406 217.648438 221.246094 219.136719 L 212.605469 237.515625 L 207.769531 225.128906 C 207.183594 223.609375 205.488281 222.847656 203.929688 223.445312 C 202.402344 224.039062 201.648438 225.757812 202.242188 227.28125 L 209.128906 244.914062 L 203.125 257.679688 L 179.953125 257.679688 C 181.28125 246.585938 189.488281 207.742188 239.347656 190.863281 C 241.636719 200.972656 247.53125 234.613281 231.175781 257.679688 Z M 257.523438 215.457031 C 253.675781 216.796875 250.585938 218.511719 248.265625 220.085938 C 248.589844 208.636719 247.027344 198.492188 245.761719 192.351562 C 252.191406 198.199219 256.539062 206.300781 257.523438 215.457031 Z M 278.011719 219.425781 C 278.488281 225.257812 278.628906 242.265625 266.84375 256.660156 C 264.859375 256.691406 262.960938 257.046875 261.1875 257.679688 L 238.265625 257.679688 C 243.898438 248.40625 246.632812 238.054688 247.71875 228.175781 C 249.292969 226.53125 259.410156 216.941406 278.011719 219.425781 Z M 143.160156 228.484375 L 134.019531 227.066406 C 134.195312 221.21875 134.933594 216.242188 135.710938 212.5 Z M 148.234375 225.335938 L 140 207.664062 C 145.496094 208.765625 150.226562 210.542969 154.285156 212.726562 Z M 135.175781 243.929688 C 134.53125 240.128906 134.183594 236.492188 134.050781 233.066406 L 146.171875 234.949219 L 151.457031 246.285156 Z M 154.449219 252.703125 L 156.765625 257.679688 L 138.726562 257.679688 C 137.824219 255.113281 137.078125 252.585938 136.464844 250.109375 Z M 173.234375 231.492188 C 175.960938 236.320312 177.207031 240.347656 177.613281 241.851562 C 175.289062 248.765625 174.367188 254.449219 174 257.679688 L 163.3125 257.679688 L 159.875 250.304688 Z M 156.992188 244.125 L 151.476562 232.289062 L 159.347656 215.886719 C 163.742188 219.03125 167.144531 222.632812 169.761719 226.148438 Z M 249.53125 274.207031 L 249.53125 282.234375 L 124.328125 282.234375 L 124.328125 274.207031 C 124.328125 270.222656 122.992188 266.546875 120.746094 263.597656 L 253.113281 263.597656 C 250.867188 266.546875 249.53125 270.222656 249.53125 274.207031 Z M 274.699219 256.65625 L 274.273438 256.65625 C 287.082031 237.921875 283.796875 217.3125 283.632812 216.351562 C 283.425781 215.117188 282.464844 214.148438 281.234375 213.929688 C 274.332031 212.699219 268.359375 212.925781 263.320312 213.902344 C 260.601562 192.894531 242.617188 176.867188 221.058594 176.867188 L 207.925781 176.867188 C 219.453125 169.792969 227.15625 157.082031 227.15625 142.605469 L 227.15625 129.773438 L 252.890625 129.773438 C 254.148438 129.773438 255.273438 128.980469 255.6875 127.789062 C 256.109375 126.597656 255.71875 125.273438 254.734375 124.488281 L 227.15625 102.625 L 227.15625 95.808594 C 227.15625 77.347656 212.125 62.335938 193.644531 62.335938 L 180.214844 62.335938 C 161.742188 62.335938 146.710938 77.347656 146.710938 95.808594 L 146.710938 102.625 L 119.125 124.488281 C 118.140625 125.273438 117.75 126.597656 118.171875 127.789062 C 118.585938 128.980469 119.710938 129.773438 120.96875 129.773438 L 146.710938 129.773438 L 146.710938 142.605469 C 146.710938 157.082031 154.414062 169.792969 165.9375 176.867188 L 152.800781 176.867188 C 129.304688 176.867188 110.191406 195.953125 110.191406 219.425781 L 110.191406 222.082031 C 100.949219 219.878906 93.386719 220.828125 92.824219 220.914062 C 91.484375 221.09375 90.433594 222.152344 90.277344 223.5 C 88.304688 239.988281 92.285156 251.25 95.480469 257.316406 C 91.464844 258.808594 88.597656 262.675781 88.597656 267.203125 L 88.597656 292.734375 C 88.597656 298.554688 93.332031 303.285156 99.160156 303.285156 L 100.773438 303.285156 L 100.773438 309.746094 C 100.773438 311.382812 102.097656 312.707031 103.738281 312.707031 L 270.121094 312.707031 C 271.761719 312.707031 273.085938 311.382812 273.085938 309.746094 L 273.085938 303.285156 L 274.699219 303.285156 C 280.527344 303.285156 285.261719 298.554688 285.261719 292.734375 L 285.261719 267.203125 C 285.261719 261.382812 280.527344 256.65625 274.699219 256.65625 " fill-opacity="1" fill-rule="nonzero"/></g><path fill="#ffffff" d="M 202.515625 153.5 C 203.691406 152.375 203.726562 150.53125 202.617188 149.34375 C 201.507812 148.167969 199.636719 148.085938 198.4375 149.199219 C 198.277344 149.335938 194.59375 152.632812 186.929688 152.632812 C 179.273438 152.632812 175.589844 149.34375 175.457031 149.226562 C 174.28125 148.085938 172.394531 148.117188 171.269531 149.308594 C 170.128906 150.484375 170.167969 152.359375 171.351562 153.492188 C 171.566406 153.699219 176.742188 158.550781 186.929688 158.550781 C 197.117188 158.550781 202.300781 153.707031 202.515625 153.5 " fill-opacity="1" fill-rule="nonzero"/></svg>